<svg width="570" height="766" viewBox="0 0 570 766" xmlns="http://www.w3.org/2000/svg"><path fill="rgb(211,230,187)" stroke="rgb(211,230,187)" stroke-width="1" opacity="0.9921568627450981" d="M 187 181 L 189 181.5 L 188.5 183 Q 190.8 182.3 190 184.5 L 208 209.5 L 227.5 241 L 229 240.5 L 228 242.5 Q 236 256 240.5 273 L 242 272.5 L 241 276.5 L 242 276.5 L 242.5 275 L 243 277.5 L 242 280.5 L 244.5 290 L 246 289.5 L 245 293.5 L 247 293.5 L 246 298.5 L 247 298.5 L 247.5 297 L 248 299.5 L 244.5 306 Q 238.9 306.6 237.5 303 Q 236.3 305.3 235 302.5 L 236 301.5 L 228 293.5 L 214.5 278 L 198.5 267 L 196.5 268 L 194 266.5 L 194.5 265 L 191.5 264 L 189.5 265 L 189.5 263 L 179.5 262 L 176.5 263 L 176.5 262 L 178 261.5 L 173 257.5 L 173 248.5 L 174 247.5 L 174 240.5 L 175 239.5 L 178 216.5 L 187 181 Z " /></svg>