<svg width="570" height="766" viewBox="0 0 570 766" xmlns="http://www.w3.org/2000/svg"><path fill="rgb(200,160,226)" stroke="rgb(200,160,226)" stroke-width="1" opacity="0.996078431372549" d="M 272.5 251 L 287.5 251 Q 297.9 254.1 304 261.5 L 307.5 267 L 309 266.5 L 308 269.5 L 311 277.5 L 311 288.5 L 312 290.5 L 310 290.5 L 311 294.5 L 309 294.5 L 310 297.5 L 308 297.5 L 296 321.5 L 291 335.5 L 291.5 337 L 288.5 335 L 285 332.5 L 285 312.5 L 286 311.5 L 275 311 L 275 332.5 L 273.5 334 L 269.5 336 L 251.5 298 L 250 298.5 L 251 295.5 L 249 295.5 L 250 291.5 L 248 291.5 L 249 289.5 Q 247.7 279.2 250 272.5 Q 253.4 261.9 261.5 256 L 272.5 251 Z " /><path fill="rgb(0,0,0)" stroke="rgb(0,0,0)" stroke-width="1" opacity="0" d="M 0 0 L 570 0 L 570 766 L 0 766 L 0 0 Z M 273 251 L 262 256 Q 253 262 250 273 Q 248 279 249 290 L 248 292 L 250 292 L 249 296 L 251 296 L 250 299 L 252 298 L 270 336 L 274 334 L 275 333 L 275 311 L 286 312 L 285 313 L 285 333 L 289 335 L 292 337 L 291 336 L 296 322 L 308 298 L 310 298 L 309 295 L 311 295 L 310 291 L 312 291 L 311 289 L 311 278 L 308 270 L 309 267 L 308 267 L 304 262 Q 298 254 288 251 L 273 251 Z " /></svg>